<?xml version="1.0" encoding="UTF-8" standalone="no"?>
<svg
   viewBox="0 -28 512.001 512"
   version="1.1"
   id="svg51"
   sodipodi:docname="heartClicked.svg"
   inkscape:version="1.2-dev (9ee32be, 2021-06-19)"
   xmlns:inkscape="http://www.inkscape.org/namespaces/inkscape"
   xmlns:sodipodi="http://sodipodi.sourceforge.net/DTD/sodipodi-0.dtd"
   xmlns="http://www.w3.org/2000/svg"
   xmlns:svg="http://www.w3.org/2000/svg">
  <defs
     id="defs55" />
  <sodipodi:namedview
     id="namedview53"
     pagecolor="#505050"
     bordercolor="#eeeeee"
     borderopacity="1"
     inkscape:pageshadow="0"
     inkscape:pageopacity="0"
     inkscape:pagecheckerboard="0"
     showgrid="false"
     inkscape:zoom="1.5605469"
     inkscape:cx="287.07884"
     inkscape:cy="256"
     inkscape:window-width="1316"
     inkscape:window-height="1025"
     inkscape:window-x="116"
     inkscape:window-y="25"
     inkscape:window-maximized="0"
     inkscape:current-layer="svg51" />
  <path
     d="m256 455.515625c-7.289062 0-14.316406-2.640625-19.792969-7.4375-20.683593-18.085937-40.625-35.082031-58.21875-50.074219l-.089843-.078125c-51.582032-43.957031-96.125-81.917969-127.117188-119.3125-34.644531-41.804687-50.78125-81.441406-50.78125-124.742187 0-42.070313 14.425781-80.882813 40.617188-109.292969 26.503906-28.746094 62.871093-44.578125 102.414062-44.578125 29.554688 0 56.621094 9.34375 80.445312 27.769531 12.023438 9.300781 22.921876 20.683594 32.523438 33.960938 9.605469-13.277344 20.5-24.660157 32.527344-33.960938 23.824218-18.425781 50.890625-27.769531 80.445312-27.769531 39.539063 0 75.910156 15.832031 102.414063 44.578125 26.191406 28.410156 40.613281 67.222656 40.613281 109.292969 0 43.300781-16.132812 82.9375-50.777344 124.738281-30.992187 37.398437-75.53125 75.355469-127.105468 119.308594-17.625 15.015625-37.597657 32.039062-58.328126 50.167969-5.472656 4.789062-12.503906 7.429687-19.789062 7.429687zm-112.96875-425.523437c-31.066406 0-59.605469 12.398437-80.367188 34.914062-21.070312 22.855469-32.675781 54.449219-32.675781 88.964844 0 36.417968 13.535157 68.988281 43.882813 105.605468 29.332031 35.394532 72.960937 72.574219 123.476562 115.625l.09375.078126c17.660156 15.050781 37.679688 32.113281 58.515625 50.332031 20.960938-18.253907 41.011719-35.34375 58.707031-50.417969 50.511719-43.050781 94.136719-80.222656 123.46875-115.617188 30.34375-36.617187 43.878907-69.1875 43.878907-105.605468 0-34.515625-11.605469-66.109375-32.675781-88.964844-20.757813-22.515625-49.300782-34.914062-80.363282-34.914062-22.757812 0-43.652344 7.234374-62.101562 21.5-16.441406 12.71875-27.894532 28.796874-34.609375 40.046874-3.453125 5.785157-9.53125 9.238282-16.261719 9.238282s-12.808594-3.453125-16.261719-9.238282c-6.710937-11.25-18.164062-27.328124-34.609375-40.046874-18.449218-14.265626-39.34375-21.5-62.097656-21.5zm0 0"
     id="path49" />
  <path
     style="fill:#ff0000;stroke-width:0.640801"
     d="M 243.18398,442.0168 C 236.31139,436.00685 218.14552,420.38633 202.81539,407.30452 144.06491,357.17039 125.97078,341.00562 103.4209,318.5083 81.402253,296.54099 68.948456,282.0051 57.552371,264.97121 45.434246,246.85809 36.754164,227.07153 33.095779,209.22153 28.758431,188.05872 29.812799,163.38361 35.969344,141.97214 50.952266,89.863967 95.708128,56.332415 147.38423,58.498963 c 34.95968,1.465704 65.74745,20.858387 88.5062,55.748527 7.70245,11.8082 11.48179,14.54099 20.10957,14.54099 8.64992,0 12.39969,-2.72237 20.18394,-14.65377 19.09003,-29.260458 44.19944,-47.736089 73.37301,-53.988211 8.97959,-1.924396 28.28547,-2.073747 38.12766,-0.294955 54.5555,9.859887 91.76224,56.343566 93.69599,117.057686 0.78313,24.58806 -3.61948,44.43807 -14.89616,67.16214 -11.87542,23.93063 -27.62988,44.17888 -57.92205,74.44367 -22.71647,22.69595 -36.85153,35.34823 -95.5311,85.50984 -18.50313,15.8172 -38.89694,33.3177 -45.31959,38.88999 -6.42264,5.57229 -11.75731,10.10841 -11.85482,10.08026 -0.0975,-0.0281 -5.80031,-4.96839 -12.6729,-10.97833 z"
     id="path211"
     transform="translate(0,-28)" />
  <path
     style="fill:#ff0000;stroke-width:0.640801"
     d="m 248.37743,482.14987 c -5.25184,-1.4123 -8.88339,-3.67127 -16.1679,-10.05706 -3.65617,-3.2051 -20.77724,-17.92034 -38.04683,-32.70054 C 131.1541,385.46625 116.73944,372.8591 98.69142,355.89251 84.940068,342.96513 63.971676,321.45811 55.746784,311.84473 19.292205,269.23602 2.2227238,230.96788 0.53941692,188.07509 -0.56854432,159.84284 5.2814478,131.70176 17.257307,107.65457 28.544433,84.990328 42.906292,67.950349 62.599812,53.856841 94.922152,30.72562 137.10868,22.695046 175.37579,32.388945 c 28.03334,7.101462 54.71877,25.130366 74.95182,50.638087 2.91649,3.676809 5.46907,6.685107 5.67239,6.685107 0.20332,0 2.75589,-3.008298 5.67238,-6.685107 23.77759,-29.976306 55.2525,-48.766501 89.80696,-53.613825 8.7903,-1.233108 28.11804,-1.081442 37.16646,0.291648 31.10991,4.720901 56.77569,17.527555 78.52308,39.181252 27.26792,27.150468 42.79022,64.773283 44.28357,107.334163 1.46558,41.76949 -12.06197,79.96551 -42.47272,119.92483 -9.04007,11.87853 -18.7904,22.93465 -32.91175,37.31938 -25.55432,26.03093 -42.34704,41.11795 -111.82268,100.4645 -15.50738,13.24651 -33.37291,28.5764 -39.70117,34.06641 -6.32826,5.49001 -12.83795,10.70682 -14.46599,11.59291 -6.31479,3.43693 -14.74505,4.43205 -21.70071,2.56157 z m 30.09086,-47.52766 c 12.18133,-10.48452 34.81763,-29.90027 50.30287,-43.1461 66.44357,-56.83477 93.85564,-83.24721 115.73055,-111.51019 20.35159,-26.29481 31.88508,-50.70145 36.19303,-76.59002 1.61656,-9.71476 1.64348,-33.5137 0.0491,-43.41486 -2.46339,-15.29772 -6.72153,-28.50707 -13.34977,-41.41286 -17.66531,-34.395972 -48.79858,-56.04235 -86.57281,-60.192445 -42.62507,-4.683037 -79.42018,15.263184 -107.0494,58.030285 -2.30555,3.56876 -5.17659,7.2397 -6.38007,8.15764 -6.32835,4.82686 -16.44998,4.83084 -22.7718,0.009 -1.19703,-0.91302 -4.27088,-4.87232 -6.8308,-8.79845 -15.20906,-23.326061 -31.4159,-38.533506 -51.31608,-48.151685 -7.91316,-3.824595 -14.49866,-6.033012 -24.17522,-8.107043 -8.87745,-1.902753 -28.27549,-2.047731 -37.98248,-0.283875 -17.36513,3.155419 -33.130614,9.823169 -46.590145,19.704544 -7.138459,5.24073 -19.06973,17.436782 -24.362021,24.902679 -10.890232,15.36297 -18.769104,35.3747 -22.103907,56.14223 -1.602807,9.9815 -1.582931,33.76452 0.03628,43.41486 5.185388,30.90433 20.299874,59.2455 49.365129,92.56452 9.690974,11.10928 32.606024,33.90783 48.460674,48.21432 19.22636,17.34895 29.2964,26.11091 73.69211,64.11962 22.02754,18.85854 42.92938,36.79126 46.44854,39.8505 3.51916,3.05923 6.54694,5.56176 6.72841,5.56118 0.18146,-5.9e-4 10.29649,-8.57931 22.47783,-19.06383 z"
     id="path44"
     transform="translate(0,-28)" />
  <path
     style="fill:#ff0000;stroke-width:0.640801"
     d="m 247.34081,481.37049 c -4.98393,-1.7234 -8.4366,-4.00758 -16.36982,-10.82976 -4.03229,-3.46758 -22.61455,-19.40945 -41.2939,-35.42637 C 110.40812,367.14383 94.570025,352.73565 67.100624,323.6045 32.383053,286.78671 11.541958,250.93835 4.2175289,215.4405 1.6455935,202.97562 0.79612699,192.44946 1.1300045,177.18147 1.4811372,161.12442 2.4709434,153.56861 6.0882028,139.33246 9.175457,127.18221 12.059752,119.34024 17.621567,107.97497 31.905538,78.786427 53.809004,56.658131 82.022527,42.912955 96.767383,35.729499 109.8593,31.817054 126.04596,29.756803 c 11.09415,-1.412072 28.93013,-1.005103 39.6011,0.903591 31.81691,5.691026 59.67131,22.893736 83.59004,51.624716 3.40068,4.084866 6.44398,7.427029 6.7629,7.427029 0.31891,0 3.38506,-3.388236 6.81366,-7.529412 20.35445,-24.584719 43.62491,-40.485883 71.04366,-48.545528 13.08416,-3.846045 18.16572,-4.485671 35.24405,-4.436246 16.74477,0.04846 21.6797,0.623276 35.13443,4.092434 47.40601,12.223124 85.12026,49.555596 99.72436,98.714863 5.31715,17.8982 7.37362,34.07647 6.88246,54.14444 -0.43048,17.58901 -1.98339,27.67025 -6.66283,43.25406 -7.41676,24.69987 -22.88687,51.89351 -43.74517,76.89612 -11.55738,13.85372 -37.51241,40.3905 -56.43043,57.69529 -19.15329,17.51999 -124.06965,107.96139 -131.66942,113.50343 -6.5923,4.80736 -17.429,6.48481 -24.99396,3.8689 z m 15.8413,-33.26465 c 15.6874,-13.27582 83.99055,-71.95838 95.98685,-82.46697 46.53139,-40.76089 69.43229,-63.93792 88.97116,-90.04399 17.40746,-23.25827 28.33485,-46.86541 32.50292,-70.21816 1.34971,-7.56209 1.9319,-30.50831 1.00419,-39.57851 -1.01307,-9.90467 -2.94048,-18.76731 -6.23434,-28.6668 -14.44476,-43.412772 -47.34991,-72.013841 -90.29819,-78.486966 -8.21402,-1.23801 -24.50658,-1.252593 -32.05246,-0.02869 -15.6697,2.541544 -29.89534,8.532495 -43.87576,18.477725 -8.3912,5.969233 -22.88493,20.940933 -30.11765,31.110861 -11.98773,16.85596 -11.34087,16.09335 -15.11708,17.82216 -7.26521,3.32611 -16.86326,1.50455 -21.18092,-4.01982 -1.07349,-1.37351 -4.55941,-6.24598 -7.74648,-10.82771 -20.46769,-29.424311 -43.16229,-45.677812 -72.5813,-51.981548 -8.45795,-1.812321 -32.52493,-1.641344 -41.29037,0.293335 -14.51015,3.202632 -27.976711,8.836658 -40.091355,16.773085 -8.308234,5.442808 -23.80327,20.967487 -29.412057,29.468318 -8.532536,12.93216 -16.050722,31.16138 -19.240232,46.65148 -2.205569,10.71151 -2.794401,19.13836 -2.404414,34.40985 0.299786,11.7393 0.637131,15.42155 2.016587,22.01186 6.038948,28.85088 20.837339,55.55453 48.30208,87.16094 10.281582,11.83204 39.408581,40.35058 58.997941,57.76549 24.21728,21.52913 115.56987,99.89086 116.49167,99.9259 0.42576,0.0162 3.7419,-2.48215 7.36921,-5.55184 z"
     id="path83"
     transform="translate(0,-28)" />
  <path
     style="fill:#ff0000;stroke-width:0.640801"
     d=""
     id="path122"
     transform="translate(0,-28)" />
  <path
     style="fill:#ff0000;stroke-width:0.640801"
     d="m 247.34081,481.37049 c -1.7668,-0.61094 -4.53907,-1.88831 -6.1606,-2.83859 C 237.25641,476.2324 138.51534,391.52814 111.81977,367.56105 98.451453,355.55907 64.399461,321.35524 55.937175,311.42928 22.331832,272.01141 5.8873339,237.74761 1.5800599,198.17068 0.57677152,188.95207 1.1156086,164.82679 2.5182575,156.1649 6.5646511,131.17688 14.648716,110.01655 27.538564,90.67334 47.102018,61.315359 75.976666,41.01675 110.03775,32.677175 c 12.39571,-3.034986 22.68625,-4.060769 36.70568,-3.658899 22.82271,0.654219 41.76851,5.974091 60.6811,17.038906 16.43537,9.615516 28.33847,20.054536 43.3842,38.047948 2.57866,3.083855 4.91658,5.607009 5.19539,5.607009 0.27881,0 3.32935,-3.388236 6.779,-7.529412 15.48661,-18.591138 30.62435,-30.789101 49.92776,-40.231705 10.97487,-5.368546 20.21186,-8.579126 31.71965,-11.025062 7.45506,-1.584542 9.11993,-1.702269 24.03004,-1.699217 17.58937,0.0036 22.7841,0.600848 36.20526,4.162579 24.31249,6.452092 44.59149,18.188773 62.52819,36.18883 28.2648,28.364646 43.84477,68.112298 43.84477,111.856908 0,12.8586 -0.76235,21.19616 -2.9489,32.25081 -6.50254,32.8753 -23.11622,63.98612 -52.53876,98.38421 -7.23481,8.45826 -40.27619,41.76342 -52.18849,52.60512 -19.49906,17.74661 -121.56653,105.74236 -130.00921,112.08525 -5.40001,4.05696 -10.62656,5.76915 -17.52709,5.74177 -3.2893,-0.0131 -6.4817,-0.43882 -8.48553,-1.13173 z M 263.11944,448.107 c 31.22036,-26.16679 103.66231,-88.98156 122.96316,-106.62193 58.47076,-53.44048 84.48267,-90.12349 93.79133,-132.2682 3.22064,-14.58132 3.10251,-40.45374 -0.25875,-56.67444 C 470.64993,109.27807 442.75402,76.077474 404.73319,63.420853 391.1,58.882549 385.7605,58.066999 369.42177,58.027418 c -12.83235,-0.03108 -15.14958,0.128867 -21.06986,1.454412 -21.76974,4.874223 -39.59501,15.389947 -56.48871,33.324564 -6.12702,6.50454 -9.87747,11.286616 -19.68603,25.100986 -3.71108,5.22669 -4.83663,6.34482 -7.95881,7.90636 -4.91716,2.45928 -11.0619,2.55137 -16.10754,0.2414 -3.66223,-1.67662 -5.88667,-4.17334 -12.49117,-14.02012 -8.07763,-12.043075 -20.7543,-25.81197 -30.86846,-33.52807 -12.4591,-9.505056 -27.46307,-16.296818 -42.70928,-19.332966 -4.41393,-0.878993 -8.84129,-1.129821 -19.78409,-1.120848 -15.8049,0.01296 -21.41431,0.852944 -34.28285,5.133694 C 91.146309,68.784921 79.042565,76.288741 66.277873,89.037301 56.177737,99.124672 52.740772,103.46088 47.324419,112.94972 c -9.132827,15.99968 -15.25538,35.25382 -16.960805,53.33814 -0.820113,8.69648 -0.401599,30.98981 0.703743,37.48686 3.638235,21.38502 11.793232,40.62076 26.623435,62.79849 12.180758,18.21564 24.210181,32.18223 47.262248,54.87318 22.36897,22.01855 35.81355,34.01006 96.57887,86.14078 47.48228,40.73516 53.81245,46.09993 54.39571,46.09993 0.29372,0 3.53004,-2.51104 7.19182,-5.5801 z"
     id="path161"
     transform="translate(0,-28)" />
  <path
     style="fill:#ff0000;stroke-width:0.640801"
     d="m 251.46626,448.69818 c -2.31734,-2.01404 -22.50257,-19.36584 -44.85607,-38.55955 -46.0223,-39.51679 -60.89146,-52.47049 -76.50534,-66.64986 C 114.95621,329.7319 88.069943,302.67561 78.616698,291.675 52.514183,261.29988 38.119297,234.17286 32.588459,204.93524 c -1.601187,-8.46433 -1.910637,-31.00903 -0.570757,-41.58208 6.669915,-52.63263 41.15126,-92.190764 89.414088,-102.578786 9.21466,-1.983352 31.89435,-2.1599 40.37046,-0.31426 30.31771,6.601567 52.73434,23.090847 74.17749,54.563666 7.79707,11.44401 11.15351,13.74908 20.02026,13.74908 9.13839,0 12.05959,-2.1201 21.15162,-15.35108 7.41927,-10.79673 12.5037,-16.894902 20.34021,-24.39566 11.99886,-11.484781 25.90853,-20.177507 40.2275,-25.139816 11.65193,-4.038033 15.55883,-4.595745 32.02284,-4.571269 13.82883,0.02056 15.213,0.13238 22.42804,1.811869 33.34052,7.760879 59.56788,28.454549 74.84312,59.052026 9.50764,19.04452 13.90781,38.63386 13.90781,61.9168 0,26.96837 -6.56091,49.12794 -22.40562,75.67525 -14.96131,25.06722 -44.01239,56.79735 -87.50809,95.57796 -12.78123,11.39571 -114.16324,98.63669 -114.90023,98.87364 -0.23518,0.0756 -2.32361,-1.51036 -4.64094,-3.5244 z"
     id="path200"
     transform="translate(0,-28)" />
  <path
     style="fill:#ff0000;stroke-width:0.640801"
     d=""
     id="path239"
     transform="translate(0,-28)" />
  <path
     style="fill:#ff0000;stroke-width:0.640801"
     d="m 247.34918,445.16665 c -4.58172,-3.97123 -26.92966,-23.19204 -49.66207,-42.71292 -22.73242,-19.52088 -44.93617,-38.678 -49.34168,-42.57138 -40.81932,-36.07418 -69.220352,-65.34897 -85.781657,-88.42073 -17.000584,-23.68373 -27.519547,-48.0684 -30.525689,-70.76353 -1.249058,-9.42986 -1.240259,-28.00445 0.01788,-37.74162 6.788544,-52.53898 41.094405,-91.758912 89.375826,-102.178285 9.16134,-1.977065 31.85708,-2.164814 40.35512,-0.333835 13.99411,3.015159 28.06958,9.117404 39.08582,16.945182 7.19518,5.112651 19.04412,16.362427 24.7902,23.536628 2.25826,2.81952 6.52024,8.58673 9.47106,12.81602 5.99894,8.59799 9.78509,12.59776 13.31601,14.06728 3.42035,1.42351 12.23636,1.30886 15.56291,-0.20238 3.30555,-1.5017 7.70117,-6.36099 14.03396,-15.51431 11.02869,-15.940708 23.06973,-28.108042 36.26602,-36.646413 10.76739,-6.966809 23.96698,-12.583685 35.05318,-14.916332 6.6201,-1.392934 24.32577,-1.94113 32.76983,-1.014607 15.74584,1.72771 32.42182,7.824951 46.55996,17.023724 26.53193,17.2626 44.66393,46.516598 50.6627,81.738698 1.58369,9.29872 1.9483,31.73258 0.67296,41.4053 -2.03055,15.40052 -6.22853,28.63431 -14.10409,44.46204 -11.94669,24.00959 -26.7845,43.03685 -57.7372,74.03928 -17.35565,17.38353 -28.39501,27.64797 -49.98248,46.47392 -17.67895,15.41742 -102.01399,87.74925 -102.29769,87.7379 -0.12676,-0.005 -3.97915,-3.2584 -8.56088,-7.22963 z"
     id="path278"
     transform="translate(0,-28)" />
  <path
     style="fill:#ff0000;stroke-width:0.640801"
     d="m 247.34081,481.37049 c -1.7668,-0.61094 -4.56264,-1.90212 -6.21298,-2.86929 -3.77605,-2.21291 -95.7873,-81.0371 -126.10405,-108.0308 C 100.06955,357.15531 64.285405,321.35392 55.370599,310.78848 24.618393,274.34227 8.8950085,243.64039 2.8401287,208.21616 1.1011312,198.04211 0.44531504,175.38758 1.5683299,164.28312 6.4904919,115.61239 31.701585,73.094438 69.504268,49.710655 84.96736,40.145578 100.45451,34.218788 119.18898,30.696772 c 8.89479,-1.672188 27.94894,-2.33047 37.42561,-1.292977 35.84425,3.924184 66.07629,21.149874 92.62995,52.778932 3.47666,4.141176 6.50178,7.529412 6.72251,7.529412 0.22071,0 3.99502,-4.222864 8.38734,-9.384142 22.64704,-26.611841 48.81194,-42.77706 79.91214,-49.371362 7.64148,-1.620257 9.2177,-1.732958 24.19404,-1.729892 17.43686,0.0036 22.59198,0.585887 35.92,4.057488 52.77248,13.745851 92.22476,57.3297 103.44293,114.275799 4.11547,20.89113 4.33915,44.5086 0.6121,64.63063 -6.12786,33.08382 -23.78269,66.3244 -53.30011,100.35361 -8.81085,10.15762 -42.37662,43.7559 -55.27567,55.32923 -22.56742,20.24801 -118.66987,102.97881 -126.5582,108.94896 -2.56132,1.9385 -5.73338,3.643 -8.23771,4.42652 -5.19128,1.6242 -13.21831,1.67923 -17.7231,0.12151 z m 13.82689,-31.67282 c 18.8436,-15.77747 93.77871,-80.35181 110.17647,-94.9431 23.36205,-20.78836 48.79224,-45.55724 60.10905,-58.54593 28.41031,-32.60748 44.11478,-62.10162 49.55864,-93.07473 1.32111,-7.5165 1.13068,-37.07672 -0.28896,-44.85607 -3.57257,-19.57693 -10.07501,-36.39683 -19.65289,-50.83617 -5.54519,-8.359752 -7.21183,-10.42365 -13.98341,-17.316354 -22.2765,-22.674974 -50.34371,-33.524344 -83.43204,-32.25062 -23.11144,0.889667 -43.65326,9.414763 -62.53438,25.952496 -9.59304,8.40242 -15.00706,14.80573 -29.59796,35.006268 -3.43763,4.75926 -4.53497,5.80333 -7.55031,7.1838 -4.88997,2.23871 -11.03578,2.24699 -15.89706,0.0214 -3.24516,-1.48569 -5.63365,-4.04817 -11.11309,-11.9227 -0.10219,-0.14685 -0.37796,-0.0748 -0.61282,0.16003 -0.6771,0.6771 4.15985,7.25673 7.62504,10.37224 3.63227,3.26572 6.18472,4.14561 12.02602,4.14561 8.70888,0 11.73293,-2.20562 20.98648,-15.30664 9.81424,-13.894836 18.23827,-23.27778 28.35519,-31.582893 11.97318,-9.828938 29.40526,-18.293393 44.0244,-21.37683 6.69976,-1.413098 24.99469,-1.964896 33.1719,-1.000505 20.78937,2.451826 41.1641,11.579312 57.96755,25.968345 19.90972,17.048983 33.70989,42.910943 38.84214,72.791453 1.41057,8.21246 1.97933,31.28597 0.97423,39.52289 -2.82545,23.1551 -11.61755,45.23116 -27.27756,68.4912 -10.66781,15.84505 -22.5151,29.54094 -45.16006,52.20664 -25.35219,25.3754 -38.26129,36.78502 -143.39433,126.73813 l -8.48301,7.25817 -1.84575,-1.49096 C 250.85779,448.34446 166.96925,376.14912 153.79224,364.63432 109.62529,326.03882 79.516021,295.27343 62.188978,271.03488 44.973374,246.95222 34.387709,221.62626 31.683252,198.05062 c -1.020885,-8.89939 -0.449025,-32.31593 0.979124,-40.09318 2.627263,-14.30724 6.331279,-25.75063 12.030108,-37.16645 15.652592,-31.355089 42.982305,-52.727875 76.739306,-60.012805 9.16134,-1.977065 31.85708,-2.164814 40.35512,-0.333835 13.95331,3.006367 27.9836,9.0804 39.1042,16.929103 7.5297,5.314312 22.60555,20.236641 28.22529,27.937867 5.97666,8.19034 6.13661,8.37859 6.55042,7.70903 C 236.41221,111.81428 225.42099,98.181734 216.611,89.385178 206.41899,79.2087 199.67271,74.177974 188.75052,68.60951 180.22369,64.262272 172.45913,61.480233 163.24951,59.472512 154.80157,57.630841 131.87987,57.458153 123.19509,59.170748 106.24132,62.513942 89.222689,69.900385 77.253833,79.110213 68.35974,85.954059 56.933095,98.025314 51.143636,106.69336 c -9.025928,13.51374 -16.498184,32.88773 -19.771779,51.26408 -1.365793,7.6669 -1.904937,28.04745 -1.012578,38.27714 2.259793,25.90547 13.855313,52.99394 34.436678,80.44806 10.196079,13.60087 18.483322,22.90442 36.111483,40.54 25.57951,25.59029 35.65896,34.6105 107.03248,95.78447 45.0763,38.63473 47.49397,40.67999 48.08718,40.67999 0.20674,0 2.52001,-1.79524 5.1406,-3.98943 z"
     id="path317"
     transform="translate(0,-28)" />
  <path
     style="fill:#ff0000;stroke-width:0.640801"
     d="m 246.97043,481.30794 c -1.97052,-0.63045 -4.9983,-2.11838 -6.72841,-3.3065 -3.25792,-2.23732 -80.43057,-68.23073 -108.78145,-93.02335 -8.86401,-7.75152 -21.0307,-18.64882 -27.03708,-24.21623 C 90.121412,347.50504 63.609544,320.47752 55.218233,310.59957 24.655984,274.62278 8.248341,242.25389 2.5308873,206.65832 1.1323893,197.95159 0.58410535,174.0407 1.559211,164.28312 4.6056221,133.79864 16.785196,103.07506 34.751053,80.555045 54.277985,56.078245 82.907396,38.408247 113.78179,31.777478 c 18.72599,-4.021703 39.34053,-4.011327 57.55762,0.02897 30.19756,6.697402 56.09678,23.81508 80.10098,52.941471 2.25017,2.73032 4.27947,4.964219 4.50958,4.964219 0.2301,0 2.99833,-3.099875 6.1516,-6.888611 24.48078,-29.414208 53.20483,-46.89035 86.81457,-52.819279 7.32685,-1.292493 34.46788,-1.076708 42.29286,0.33625 30.09647,5.434521 54.80756,18.076281 75.32368,38.534283 12.09006,12.055807 20.10483,23.303495 27.86164,39.100189 7.555,15.38571 11.96025,29.38308 14.78596,46.98136 1.68982,10.52406 2.33577,32.70325 1.26414,43.40528 -3.50596,35.0127 -18.25684,68.01486 -46.07328,103.07979 -16.27238,20.51268 -45.05708,49.38877 -79.24974,79.50136 -29.15765,25.67839 -105.56149,91.16742 -112.23889,96.20481 -2.16198,1.63098 -5.46824,3.3651 -7.8186,4.10081 -5.2009,1.62798 -13.10995,1.65402 -18.09348,0.0596 z m 11.81952,-29.70344 c 6.88895,-5.40584 93.48165,-79.96676 112.83878,-97.16018 64.91599,-57.65985 94.03287,-95.08299 105.76056,-135.93118 3.78947,-13.19894 4.39918,-18.30268 4.40177,-36.84606 0.003,-18.22366 -0.57407,-23.40464 -4.07092,-36.57791 C 473.1265,127.78404 464.50166,110.56565 453.97183,97.678698 448.06194,90.445875 437.7182,81.048826 430.03307,75.930887 410.25766,62.761391 388.13929,56.782709 363.33416,57.901915 c -14.46493,0.652657 -24.94035,3.375483 -38.44806,9.99362 -16.75828,8.210766 -31.57834,21.219652 -44.9295,39.438635 -2.58274,3.5244 -6.4504,8.8103 -8.5948,11.74644 -4.86766,6.66485 -8.27257,8.55187 -15.43086,8.55187 -6.37018,0 -10.67277,-2.22108 -14.76714,-7.6231 -1.66146,-2.19208 -3.30678,-4.49656 -3.65628,-5.12107 -0.34948,-0.6245 -0.84344,-0.92745 -1.09767,-0.67322 -1.50538,1.50538 8.9115,12.62596 12.93608,13.80996 3.38325,0.99533 9.92488,0.99533 13.30813,0 3.48939,-1.02655 8.51027,-6.09945 14.13644,-14.28287 14.56029,-21.178374 29.98985,-35.407298 48.1577,-44.410368 16.90863,-8.379065 29.01328,-10.888058 49.21429,-10.2009 11.87289,0.403867 18.10277,1.482672 28.74753,4.978097 40.62291,13.339371 68.66768,48.054841 76.54607,94.753231 0.90484,5.36333 1.14005,10.34256 1.12269,23.76604 -0.0208,16.06131 -0.11788,17.43251 -1.79236,25.31164 -10.25518,48.2548 -42.0439,88.75699 -128.32041,163.49372 -26.50562,22.96041 -93.83207,80.64358 -94.32073,80.81103 -0.41617,0.1426 -40.40808,-34.01686 -90.17782,-77.02621 C 119.2831,334.87538 88.127951,304.35181 69.131969,280.34602 47.740474,253.31294 34.731802,224.72753 31.680914,198.05062 30.549017,188.15333 31.22275,165.67367 32.920948,156.67584 39.070045,124.09514 54.595129,97.954422 78.419944,80.065879 90.380616,71.085366 106.48896,63.848886 121.33487,60.786865 c 9.18412,-1.894256 27.65331,-2.341797 36.94297,-0.895193 17.09911,2.662707 34.64103,10.636255 48.70088,22.136618 6.63391,5.426251 17.303,16.736944 22.98232,24.36439 2.74738,3.68978 5.28849,6.81415 5.64691,6.94304 2.05653,0.73953 -8.35972,-12.9738 -16.08511,-21.17656 -24.09259,-25.58135 -51.7988,-36.445086 -86.49107,-33.91356 -19.48613,1.421921 -39.594136,8.887511 -55.17445,20.484875 -6.347127,4.724548 -18.82734,17.264826 -23.634539,23.748295 -12.606783,17.00277 -21.784291,41.7801 -23.765125,64.16082 -2.476591,27.9821 1.581211,51.38382 13.050383,75.26278 16.546721,34.45048 46.203747,68.23329 105.798591,120.51691 20.74565,18.20053 106.01902,91.26782 106.51435,91.26782 0.17324,0 1.50928,-0.93717 2.96897,-2.0826 z"
     id="path356"
     transform="translate(0,-28)" />
  <path
     style="fill:#ff0000;stroke-width:0.640801"
     d="m 246.97043,481.30794 c -1.97052,-0.63045 -4.9983,-2.11904 -6.72841,-3.30796 C 236.76136,475.6081 157.50006,407.8023 129.7622,383.48762 107.10471,363.62634 95.115584,352.34824 76.896119,333.75682 57.242044,313.7015 48.486211,303.50071 36.93296,287.19862 16.978611,259.04226 5.323987,230.50568 1.9302924,201.49386 0.81027959,191.91916 0.66050677,172.93594 1.6290469,163.31195 3.4344089,145.3728 9.3159693,124.76265 17.237805,108.61577 31.959281,78.609339 53.268835,56.960187 81.935871,42.886646 101.46759,33.297919 120.79943,28.853301 143.026,28.841302 c 20.66744,-0.01116 38.20721,3.992887 56.36634,12.867514 18.14242,8.866459 34.26762,21.915422 49.8175,40.313711 3.42558,4.053066 6.44805,7.369211 6.71661,7.369211 0.26855,0 3.32407,-3.316145 6.79004,-7.369211 22.763,-26.618783 46.48856,-42.19519 75.67805,-49.684474 28.27289,-7.254107 63.5638,-3.316389 91.31572,10.188901 28.04497,13.647901 50.33841,36.192873 64.7178,65.448016 7.51685,15.29317 12.21976,30.44332 15.01825,48.38047 1.6144,10.34762 1.98289,33.49628 0.70761,44.45184 -4.49746,38.63626 -23.05485,75.75221 -57.07138,114.14641 -8.01389,9.04521 -34.14906,35.30028 -46.49431,46.70761 -6.16771,5.69912 -19.24754,17.38826 -29.06627,25.97587 -26.80298,23.44225 -99.16945,85.38607 -104.08264,89.09203 -5.49745,4.14666 -10.58812,5.80622 -17.66703,5.75948 -3.16006,-0.0209 -6.63257,-0.48668 -8.80186,-1.18074 z m 14.47637,-31.92867 c 18.80409,-15.75446 92.87259,-79.62772 110.73754,-95.49496 61.56922,-54.68436 90.45485,-90.86155 103.40642,-129.50918 5.4585,-16.28823 7.37672,-33.26085 6.07441,-53.74699 -0.82147,-12.92217 -2.38728,-21.13727 -6.26241,-32.85593 -6.69888,-20.25786 -16.86925,-36.74733 -30.85007,-50.018006 -13.87029,-13.165749 -28.79482,-21.567984 -46.5516,-26.207675 -11.56594,-3.022082 -15.75848,-3.516344 -29.54052,-3.48256 -10.63606,0.02607 -13.92211,0.267703 -19.31871,1.420553 -28.73119,6.137697 -51.92403,22.985629 -72.82428,52.901628 -7.25011,10.37759 -8.68045,11.95312 -12.39573,13.65404 -2.65585,1.21588 -4.54485,1.59229 -7.99091,1.59229 -6.39973,0 -10.72606,-2.23021 -14.78649,-7.62242 -1.6504,-2.19172 -3.28685,-4.4962 -3.63655,-5.12107 -0.88874,-1.58811 -1.63663,-0.59445 -0.77057,1.0238 1.64291,3.06981 7.30874,9.11906 10.04051,10.71999 3.43549,2.01333 10.40439,2.77044 14.7304,1.60033 5.39085,-1.45813 6.98427,-3.14001 20.1238,-21.24095 5.41053,-7.453524 16.43532,-19.237138 22.92041,-24.49802 15.7199,-12.752401 34.10201,-20.917622 51.71422,-22.971135 9.02991,-1.052851 27.09668,-0.37266 35.04395,1.319358 13.12404,2.794183 27.86393,9.110882 38.90294,16.671644 26.1433,17.905887 43.20607,45.949063 49.1405,80.763833 1.3883,8.1446 1.96294,31.16844 0.98516,39.47235 -3.83948,32.60726 -20.18626,64.21654 -51.00158,98.62027 -15.73784,17.57049 -44.16296,44.85943 -72.13269,69.24948 -18.92603,16.50379 -100.51218,86.43492 -101.06288,86.6255 -0.41073,0.14214 -48.69922,-41.10186 -92.41742,-78.93524 -44.64251,-38.63329 -75.939041,-69.39102 -94.592681,-92.96418 -19.1621,-24.21572 -32.090221,-50.68196 -36.464198,-74.6489 -1.453951,-7.96684 -2.002675,-30.19453 -0.985608,-39.92498 5.385618,-51.5251 38.924251,-92.409349 85.264017,-103.938505 9.63387,-2.396868 17.39204,-3.091403 30.00472,-2.686112 19.86895,0.638459 34.72626,5.474051 51.99634,16.923188 9.08685,6.024093 24.08784,20.721728 31.4182,30.782859 4.56908,6.27117 7.1423,8.79162 4.68455,4.58847 C 229.81714,102.493 212.28101,84.000511 202.13197,76.728776 190.6275,68.485879 174.31103,61.531709 160.98431,59.191415 c -8.35466,-1.467156 -28.67551,-1.433378 -37.30972,0.06202 -13.3889,2.318881 -30.974005,9.357413 -42.005221,16.812813 -9.566621,6.465564 -22.818334,19.65898 -29.920082,29.788452 -4.315269,6.15503 -11.776762,21.70562 -14.851904,30.95301 -5.551722,16.69485 -7.545326,31.42516 -6.851818,50.62658 0.431205,11.93892 1.407417,19.11547 3.910943,28.75102 6.411099,24.67498 22.105427,51.63934 46.014501,79.05733 3.921606,4.49715 13.919037,14.9531 22.216521,23.23545 23.50021,23.45738 36.2004,34.80051 104.79573,93.59794 46.34552,39.7257 48.53426,41.58289 49.01674,41.59213 0.17622,0.003 2.62728,-1.92663 5.4468,-4.28889 z"
     id="path395"
     transform="translate(0,-28)" />
  <path
     style="fill:#ff0000;fill-opacity:1"
     id="path2489"
     d="m 241.85233,87.17368 c 0.15148,0.61993 -0.068,1.49335 0.45445,1.85977 0.82221,0.57661 7.72172,2.47533 8.67898,2.75041 0,0 11.31091,-7.70234 11.31091,-7.70234 v 0 c -1.3899,-0.47672 -2.74947,-1.05332 -4.16971,-1.43017 -0.91779,-0.24353 -1.96285,-0.009 -2.81698,-0.42368 -0.26482,-0.12863 0.10296,-0.57973 0.15445,-0.86959 0,0 -13.6121,5.8156 -13.6121,5.8156 z" />
  <path
     style="fill:#ff0000;fill-opacity:1"
     id="path2491"
     d="m 266.99592,88.79793 c -2.84071,4.18826 -5.55696,8.45707 -8.35871,12.67231 0,0 11.95919,-5.22121 11.95919,-5.22121 v 0 c 3.16913,-4.5823 6.33015,-9.1747 9.86022,-13.49209 0,0 -13.4607,6.04099 -13.4607,6.04099 z" />
  <path
     style="fill:#ff0000;fill-opacity:1"
     id="path2493"
     d="m 279.55465,77.28491 c -6.77191,5.4429 -13.80498,10.55231 -20.88379,15.58557 -2.73038,1.94139 -8.96374,5.94539 -11.84534,8.84129 -0.49977,0.50224 -0.74016,1.20838 -1.11025,1.81258 4.07484,-2.46665 8.62024,-4.2858 12.2245,-7.39995 0.68022,-0.58772 -1.71111,-0.57687 -2.50571,-0.99727 -0.61307,-0.32435 -1.07647,-1.55207 -1.68546,-1.22012 -4.10278,2.23635 -7.81272,5.18579 -11.2986,8.29749 -0.45968,0.41035 1.33503,0.49186 1.84304,0.14312 4.06175,-2.78842 7.66031,-6.19775 11.49046,-9.29662 -1.56676,-0.8531 -2.58635,-2.72739 -4.39464,-3.16621 -1.1794,-0.28621 -2.38908,-0.43076 -3.57673,-0.68056 -1.28148,-0.26953 -2.66228,-1.47107 -3.82937,-0.87715 -4.15827,2.1161 -7.41932,5.65952 -11.12898,8.48929 0,0 12.47711,-7.95648 12.47711,-7.95648 v 0 c -4.25466,2.4517 -9.13721,4.04458 -12.76398,7.35508 -0.93508,0.85354 2.46944,0.56861 3.6811,0.93576 1.00195,0.30361 1.95192,0.76266 2.95149,1.07402 0.86429,0.26923 1.33787,-0.0237 2.1837,0.52566 0.65177,0.42328 1.1646,1.02937 1.74689,1.54406 4.35196,-2.11296 8.87831,-3.8992 13.05588,-6.33888 0.47677,-0.27843 -1.13401,-0.5984 -1.62131,-0.33884 -4.49581,2.39466 -9.03103,4.85652 -12.95596,8.10332 -0.5559,0.45985 1.32302,0.60643 1.89403,1.04736 0.87556,0.6761 1.36412,2.63022 2.4129,2.27843 4.77605,-1.60203 8.7505,-4.9937 13.12575,-7.49054 0.14407,-0.33436 0.19673,-0.72542 0.43221,-1.00308 2.92922,-3.45393 6.3095,-5.26552 10.14183,-8.00793 7.78804,-5.57311 15.57745,-11.14431 23.35649,-16.729975 0,0 -13.41726,5.470575 -13.41726,5.470575 z" />
  <path
     style="fill:#ff0000;fill-opacity:1"
     id="path2495"
     d="m 268.23742,97.04943 c -3.64945,0.0948 -7.29446,-0.17603 -10.94621,-0.20665 0,0 -11.36948,8.2106 -11.36948,8.2106 v 0 c 3.42126,0.17331 6.82021,0.43132 10.22455,0.78079 0,0 12.09114,-8.78474 12.09114,-8.78474 z" />
  <path
     style="fill:#ff0000;fill-opacity:1"
     id="path2497"
     d="m 278.58147,86.05889 c 4.21056,-3.30538 7.86098,-7.21469 11.48507,-11.13244 4.33756,-4.91158 8.70436,-9.854369 13.77197,-14.040384 1.12974,-0.933209 2.32193,-1.788144 3.4829,-2.682217 -2.37018,0.965762 11.4261,-7.409041 8.60319,-5.505611 -2.04393,1.378179 -4.68895,1.993956 -6.31776,3.844362 -1.27432,1.447696 3.44162,-1.74324 5.18825,-2.561182 4.08402,-1.912543 5.94702,-2.608702 10.04987,-4.272855 3.08378,-1.176688 6.214,-2.230604 9.38706,-3.139198 0.53357,-0.152784 1.07175,-0.288965 1.60721,-0.434946 0.29262,-0.07977 0.62481,-0.07387 0.87702,-0.242315 4.13741,-2.763155 8.16756,-5.683618 12.25134,-8.525427 -1.03756,-0.214371 -2.05389,-0.605061 -3.11268,-0.643111 -1.45324,-0.05223 -2.90205,0.206151 -4.34638,0.375052 -1.71198,0.2002 -3.43655,0.356778 -5.1189,0.731822 -8.09911,1.805522 -15.5361,5.249642 -23.03768,8.67624 -2.33797,1.178297 -4.67595,2.356594 -7.01392,3.53489 -1.91017,1.043487 -3.79633,2.132185 -5.73051,3.130459 -0.66571,0.343588 -2.71321,0.519987 -2.06289,0.891888 2.57728,1.473889 6.85054,-1.99603 7.94613,-3.294332 0.8661,-1.026354 -2.32482,1.34513 -3.48722,2.017695 5.29533,-2.752442 10.74182,-5.772102 16.31176,-7.987961 1.52067,-0.604964 3.09328,-1.106481 4.69884,-1.42369 0.48346,-0.09552 1.79354,-0.160311 1.46399,0.206103 -0.51335,0.570781 -1.56215,0.22605 -2.21536,0.629325 -1.3315,0.822026 -2.419,1.985667 -3.6285,2.9785 -5.2033,3.953315 -10.5702,7.694358 -16.0297,11.284785 -1.54066,1.013211 -6.23847,3.934469 -4.66262,2.976917 9.45739,-5.746682 12.60777,-5.732886 8.54522,-5.637672 0.21093,0.08142 0.42187,0.162831 0.6328,0.244246 0,0 -13.28356,6.741192 -13.28356,6.741192 v 0 c 0.20348,0.541243 0.40695,1.082487 0.61043,1.623731 6.88968,0.767402 1.58417,0.457758 15.97029,-7.836297 1.50629,-0.868426 2.90626,-1.909612 4.34729,-2.882506 5.53199,-3.734863 11.00622,-7.559973 16.35539,-11.553088 0.72925,-0.614065 6.64219,-4.140432 5.0896,-7.022804 -0.4153,-0.770982 -1.77555,-0.159094 -2.62674,0.04673 -1.91837,0.463879 -3.76954,1.187702 -5.59376,1.94106 -5.28501,2.182584 -11.30869,5.343104 -16.3836,7.899137 -6.13241,3.529195 -12.32642,6.953454 -18.39724,10.587586 -1.83732,1.099865 -3.86254,2.034522 -5.31558,3.607461 -0.90083,0.975169 -2.26002,2.663106 -1.44525,3.711251 0.71073,0.914302 2.06495,-1.049978 3.07844,-1.610265 12.02861,-6.64977 -0.32741,-0.129134 13.15412,-7.117198 7.21985,-3.364369 14.03126,-6.635746 21.89309,-8.277955 5.35989,-1.119594 3.77152,-0.287598 8.62993,-0.815436 0.56423,-0.0613 1.10266,-0.26939 1.65399,-0.404084 4.15974,-2.654548 8.31947,-5.309096 12.4792,-7.963643 -0.32514,0.17466 -0.63124,0.390709 -0.97542,0.52398 -0.59057,0.228677 -1.21306,0.364585 -1.81641,0.557049 -3.42076,1.091193 -6.80348,2.29935 -10.15305,3.592317 -5.19137,2.113853 -10.50946,4.13545 -15.44367,6.81849 -5.5281,3.005973 -10.9874,6.137213 -16.44929,9.261878 -4.97766,2.847651 -4.48873,2.655669 -8.88215,5.799612 -1.18131,0.936904 -2.39452,1.834923 -3.54391,2.810711 -5.06468,4.299709 -9.44317,9.335128 -13.91365,14.224968 -3.84633,4.04606 -7.79183,8.03502 -12.39588,11.23275 0,0 13.81889,-5.49557 13.81889,-5.49557 z" />
  <path
     style="fill:#ff0000;fill-opacity:1"
     id="path2499"
     d="m 309.0596,48.676235 c -3.6685,1.991104 -7.32239,4.008848 -10.98244,6.015441 -1.06392,0.583289 -2.26201,0.971918 -3.18922,1.754507 -0.22359,0.188713 0.56304,0.27873 0.84969,0.220114 0.60052,-0.122798 1.12275,-0.492166 1.68413,-0.73825 8.20526,-5.254493 -9.88707,5.143521 -9.14987,5.589195 0.63438,0.383515 1.30965,0.757221 2.0396,0.886426 0.70659,0.125069 1.43187,-0.09682 2.14781,-0.145237 2.82581,0.273753 0.43066,9.42e-4 0.20123,0.120066 -0.45183,0.234603 -0.73368,0.70603 -1.10051,1.059045 0,0 13.38306,-5.732224 13.38306,-5.732224 v 0 c 1.13379,-1.81528 2.75654,-3.743271 -0.86099,-4.071718 -0.61397,0.08614 -1.25412,0.06125 -1.84192,0.258418 -0.33258,0.111558 -0.51845,0.789582 -0.83562,0.639712 -0.22797,-0.107726 -0.4155,-2.577049 -1.41389,-2.13844 -10.66692,4.686131 -10.37321,4.663029 -15.83877,9.093079 -0.4671,0.867392 -1.37646,1.617324 -1.4013,2.602178 -0.0144,0.56968 0.74597,1.195556 1.30792,1.10092 1.25631,-0.211571 2.21297,-1.263107 3.32685,-1.881444 3.35896,-1.864607 6.72481,-3.727494 10.16976,-5.429297 0,0 11.50448,-9.202491 11.50448,-9.202491 z" />
  <path
     style="fill:#ff0000;fill-opacity:1"
     id="path2501"
     d="m 292.55876,67.500687 c 7.27976,-1.508327 10.44309,-2.276209 17.91831,-3.347479 1.92329,-0.275625 3.8653,-0.39935 5.79794,-0.599025 0,0 10.49279,-7.853313 10.49279,-7.853313 v 0 c -7.57433,1.345407 -15.16596,2.622862 -22.83589,3.301018 0,0 -11.37315,8.498799 -11.37315,8.498799 z" />
  <path
     style="fill:#ff0000;fill-opacity:1"
     id="path2503"
     d="m 302.93298,57.488126 c -4.37396,2.204884 -2.09349,1.057537 -6.84191,3.441099 0,0 -10.80282,8.63509 -10.80282,8.63509 v 0 c 4.31994,-2.112323 2.30312,-1.167702 6.03737,-2.861655 0,0 11.60736,-9.214534 11.60736,-9.214534 z" />
  <ellipse
     style="fill:#ff0000;fill-opacity:1;stroke-width:1.44902"
     id="path2527"
     cx="142.89861"
     cy="148.22026"
     rx="123.67458"
     ry="127.5194" />
  <ellipse
     style="fill:#ff0000;fill-opacity:1;stroke-width:1.44902"
     id="path2527-9"
     cx="362.69336"
     cy="153.98749"
     rx="123.67458"
     ry="127.5194" />
  <rect
     style="fill:#ff0000;fill-opacity:1;stroke-width:0.919909"
     id="rect2655"
     width="327.89191"
     height="81.459129"
     x="-97.627068"
     y="414.47311"
     transform="matrix(0.7415637,-0.67088246,0.65424497,0.7562827,0,0)" />
  <rect
     style="fill:#ff0000;fill-opacity:1;stroke-width:0.919909"
     id="rect2655-3"
     width="327.89191"
     height="81.459129"
     x="167.45506"
     y="88.172607"
     transform="matrix(0.77861633,0.62750029,-0.64464047,0.76448589,0,0)" />
</svg>
