<?xml version="1.0" encoding="iso-8859-1"?>
<!-- Generator: Adobe Illustrator 19.0.0, SVG Export Plug-In . SVG Version: 6.00 Build 0)  -->
<svg xmlns="http://www.w3.org/2000/svg" xmlns:xlink="http://www.w3.org/1999/xlink" version="1.1" id="Capa_1" x="0px" y="0px" viewBox="0 0 465 465" style="enable-background:new 0 0 465 465;" xml:space="preserve" width="512" height="512">
<g>
	<rect x="393.91" y="196.09" style="fill:#CFC8AB;" width="25.26" height="105.63"/>
	<path style="fill:#FF6A2E;" d="M345.83,74.46v35.16c0,5.07-4.12,9.19-9.19,9.19h-17.5V65.27h17.5   C341.71,65.27,345.83,69.39,345.83,74.46z"/>
	<path style="fill:#FF9212;" d="M261.37,7.5H80.66c-31.91,0-57.78,25.86-57.78,57.77v207.79c0,81.81,66.32,148.13,148.13,148.13   c44.62,0,84.63-19.73,111.78-50.93v25.41c0,4.99,4.05,9.04,9.05,9.04h18.25c5,0,9.05-4.05,9.05-9.04V65.27   C319.14,33.36,293.28,7.5,261.37,7.5z M273.86,166.47c-26.64-25.72-62.89-41.54-102.85-41.54c-39.95,0-76.2,15.82-102.85,41.54   V52.78c17.14,0,17.14,9.37,34.28,9.37c17.15,0,17.15-9.37,34.29-9.37c17.14,0,17.14,9.37,34.28,9.37s17.14-9.37,34.28-9.37   c17.14,0,17.14,9.37,34.29,9.37c17.14,0,17.14-9.37,34.28-9.37V166.47z"/>
	<path style="fill:#591200;" d="M273.862,45.28c-10.486,0-16.172,3.106-20.739,5.603c-4,2.186-6.891,3.766-13.547,3.766   c-6.656,0-9.546-1.58-13.546-3.766c-4.568-2.496-10.252-5.603-20.74-5.603c-10.486,0-16.17,3.106-20.737,5.603   c-4,2.186-6.89,3.765-13.544,3.765s-9.544-1.579-13.544-3.765c-4.567-2.497-10.251-5.603-20.738-5.603s-16.17,3.106-20.738,5.603   c-4,2.186-6.889,3.765-13.543,3.765s-9.544-1.579-13.543-3.765c-4.567-2.497-10.251-5.603-20.737-5.603c-4.142,0-7.5,3.358-7.5,7.5   v113.686c0,3.009,1.799,5.727,4.568,6.903c2.771,1.176,5.974,0.583,8.14-1.507c26.348-25.429,61.024-39.433,97.64-39.433   c36.616,0,71.292,14.004,97.641,39.433c1.426,1.376,3.303,2.104,5.21,2.104c0.987,0,1.984-0.195,2.93-0.597   c2.77-1.176,4.568-3.894,4.568-6.903V52.78C281.362,48.638,278.005,45.28,273.862,45.28z M266.362,150.049   c-27.188-21.14-60.473-32.619-95.349-32.619s-68.16,11.479-95.349,32.619V61.258c2.174,0.672,3.957,1.647,6.043,2.787   c4.567,2.497,10.251,5.603,20.737,5.603c10.486,0,16.17-3.106,20.738-5.603c4-2.186,6.889-3.765,13.543-3.765   c6.655,0,9.544,1.58,13.544,3.765c4.567,2.497,10.251,5.603,20.738,5.603s16.17-3.106,20.738-5.603   c4-2.186,6.89-3.765,13.544-3.765c6.656,0,9.546,1.58,13.546,3.766c4.568,2.496,10.252,5.603,20.74,5.603s16.172-3.106,20.74-5.603   c2.087-1.141,3.871-2.116,6.046-2.788V150.049z"/>
	<path style="fill:#591200;" d="M449.616,301.717c0-15.993-9.036-30.693-22.945-38.082v-40.539h5.182c4.143,0,7.5-3.358,7.5-7.5   s-3.357-7.5-7.5-7.5h-5.182v-12.01c0-4.142-3.357-7.5-7.5-7.5h-4.502v-6.653c0-4.142-3.357-7.5-7.5-7.5s-7.5,3.358-7.5,7.5v5.74   c-13.56-3.365-23.639-15.64-23.639-30.226s10.079-26.861,23.639-30.226v35.201c0,4.142,3.357,7.5,7.5,7.5s7.5-3.358,7.5-7.5   v-43.614c0-4.142-3.357-7.5-7.5-7.5c-25.441,0-46.139,20.698-46.139,46.139c0,17.975,10.339,33.571,25.376,41.183v65.005   c-13.908,7.388-22.944,22.088-22.944,38.081c0,21.194,15.389,38.849,35.577,42.41v60.588c0,24.971-20.315,45.286-45.286,45.286   c-22.415,0-41.067-16.373-44.653-37.786h0.993c9.126,0,16.55-7.424,16.55-16.549V126.309h9.993c9.204,0,16.692-7.488,16.692-16.693   V74.464c0-9.205-7.488-16.693-16.692-16.693h-10.437C322.465,25.302,294.824,0,261.371,0H80.655   C44.664,0,15.384,29.281,15.384,65.271v207.787c0,85.814,69.815,155.629,155.629,155.629c38.741,0,75.831-14.43,104.279-40.105   v7.082c0,9.125,7.424,16.549,16.55,16.549h2.109C297.657,441.927,323.053,465,353.753,465c33.242,0,60.286-27.044,60.286-60.286   v-60.588C434.227,340.566,449.616,322.911,449.616,301.717z M338.328,74.464v35.151c0,0.934-0.759,1.693-1.692,1.693h-9.993V72.771   h9.993C337.569,72.771,338.328,73.531,338.328,74.464z M290.292,395.665v-22.644c2.289-2.729,4.5-5.547,6.587-8.412   c2.439-3.348,1.703-8.039-1.645-10.478c-3.347-2.438-8.039-1.703-10.479,1.645c-2.39,3.279-4.953,6.496-7.62,9.56   c-26.745,30.729-65.425,48.352-106.123,48.352c-77.543,0-140.629-63.086-140.629-140.629V65.271C30.384,37.552,52.935,15,80.655,15   h180.716c27.72,0,50.271,22.552,50.271,50.271v330.394c0,0.854-0.695,1.549-1.55,1.549h-18.251   C290.987,397.214,290.292,396.52,290.292,395.665z M411.671,203.586v90.631h-10.265v-90.631H411.671z M406.539,329.794   c-15.481,0-28.077-12.595-28.077-28.077c0-7.402,2.978-14.372,7.944-19.521v19.521c0,4.142,3.357,7.5,7.5,7.5h25.265   c4.143,0,7.5-3.358,7.5-7.5v-19.522c4.967,5.149,7.945,12.12,7.945,19.522C434.616,317.199,422.02,329.794,406.539,329.794z"/>
</g>















</svg>
