<svg id="Capa_1" enable-background="new 0 0 512 512" height="512" viewBox="0 0 512 512" width="512" xmlns="http://www.w3.org/2000/svg"><g><g><g><path d="m337.363 504.5h-162.726c-51.909 0-93.989-41.603-93.989-92.922 0-32.751 9.089-64.874 26.277-92.872l108.117-176.114h81.916l108.117 176.114c17.188 27.998 26.277 60.121 26.277 92.872 0 51.319-42.08 92.922-93.989 92.922z" fill="#eaf6ff"/><path d="m405.075 318.706-108.117-176.114h-20.791l98.908 161.114c17.188 27.998 26.277 60.121 26.277 92.872 0 51.319-42.08 92.922-93.989 92.922h-162.726c-9.274 0-18.232-1.334-26.694-3.809 15.76 11.802 35.399 18.809 56.694 18.809h162.726c51.909 0 93.989-41.603 93.989-92.922 0-32.751-9.089-64.874-26.277-92.872z" fill="#d8ecfe"/><path d="m294.186 142.592h-76.372c-10.79 0-19.537-8.747-19.537-19.537 0-10.79 8.747-19.537 19.537-19.537h76.372c10.79 0 19.537 8.747 19.537 19.537 0 10.79-8.747 19.537-19.537 19.537z" fill="#eaf6ff"/><path d="m294.186 103.518h-11.014c.348 1.458.551 2.972.551 4.537 0 10.79-8.747 19.537-19.537 19.537h-65.358c2.049 8.598 9.761 15 18.986 15h76.372c10.79 0 19.537-8.747 19.537-19.537 0-10.79-8.747-19.537-19.537-19.537z" fill="#d8ecfe"/><path d="m275.325 103.518h-38.65c-10.445-7.884-27.109-22.576-40.283-45.954-7.782-13.81-12.243-26.917-14.856-37.667-1.534-6.312 3.215-12.397 9.711-12.397h128.968c6.617 0 11.444 6.319 9.634 12.684-3.297 11.593-8.686 25.759-17.682 40.65-12.362 20.46-26.711 34.308-36.842 42.684z" fill="#eaf6ff"/><path d="m320.214 7.5h-21.044c-3.343 11.14-8.599 24.42-17.005 38.334-4.637 7.675-9.554 14.42-14.423 20.294-11.838 14.283-29.548 22.389-48.1 22.389 6.347 6.493 12.323 11.446 17.031 15h38.65c10.13-8.375 24.48-22.224 36.841-42.684 8.996-14.891 14.386-29.058 17.682-40.65 1.812-6.364-3.015-12.683-9.632-12.683z" fill="#d8ecfe"/></g><g><g><g><g><path d="m166.376 494.276c-.894-.87-5.157-3.431-3.934-6.885 2.078-5.872 5.5-12.62 11.322-18.572 15.753-16.104 39.103-16.204 50.905-16.642 25.096-.931 60.88-5.917 107.929-23.984 3.252 1.293 18.655 7.807 24.963 24.229.699 1.82 6.022 16.443.118 28.226-6.626 13.225-23.756 15.593-61.943 19.849 0 .001-110.334 12.298-129.36-6.221z" fill="#d78878"/></g></g></g><path d="m357.561 452.423c-6.308-16.422-21.711-22.936-24.963-24.229-2.739 1.052-5.436 2.055-8.099 3.02 1.154 1.893 2.196 3.955 3.062 6.209.699 1.821 6.022 16.443.118 28.226-6.626 13.226-23.756 15.593-61.943 19.849 0 0-64.529 7.191-103.399 2.292-.776 3.251 3.18 5.65 4.039 6.486 19.026 18.519 129.36 6.222 129.36 6.222 38.187-4.256 55.317-6.624 61.943-19.849 5.904-11.783.581-26.406-.118-28.226z" fill="#c96e59"/><g><g><g><path d="m179.395 435.798c-2.736-3.47-7.527-10.622-7.985-20.265-.648-13.644 7.81-23.611 10.674-26.987 22.747-26.811 59.301-10.526 81.865-34.141 5.333-5.581 11.364-14.941 13.357-31.402.486-4.014 4.766-6.344 8.458-4.695 7.476 3.34 18.104 10.029 23.584 22.514 5.599 12.757 2.775 24.619.857 32.672-1.189 4.991-6.146 23.197-22.856 36.151-3.611 2.799-6.637 4.474-23.4 11.206-47.776 19.184-61.246 20.95-74.522 17.988-4.305-.959-7.758-2.161-10.032-3.041z" fill="#d78878"/></g></g></g><path d="m309.348 340.823c-5.48-12.485-16.108-19.175-23.584-22.514-3.419-1.527-7.338.362-8.284 3.838.668 1.17 1.301 2.385 1.868 3.676 5.599 12.757 2.775 24.619.857 32.672-1.188 4.991-6.146 23.197-22.856 36.151-3.611 2.799-6.637 4.475-23.4 11.206-32.575 13.08-49.196 18.059-60.687 18.967 1.76 4.973 4.371 8.744 6.133 10.979 2.274.88 5.727 2.082 10.031 3.042 13.277 2.962 26.746 1.196 74.522-17.988 16.763-6.731 19.789-8.406 23.4-11.206 16.71-12.954 21.667-31.16 22.856-36.151 1.918-8.053 4.743-19.915-.856-32.672z" fill="#c96e59"/><g><g><g><path d="m161.893 489.868c-3.342-3.644-11.578-13.625-10.164-25.794.361-3.109 1.788-10.069 9.904-18.056 24.178-23.795 65.835-15.464 104.843-34.857 11.448-5.692 27.755-16.3 43.728-37.665 2.895 1.106 6.905 3.04 11.147 6.227 5.089 3.823 10.622 9.609 13.817 18.002.511 1.342 5.859 15.904.118 28.226-11.801 25.333-65.069 29.618-109.664 33.205-17.684 1.423-42.501 2.401-57.242 20.188-3.279 3.955-5.284 7.807-6.487 10.524z" fill="#d78878"/></g></g></g><path d="m335.167 397.724c-3.194-8.393-8.728-14.179-13.816-18.002-4.242-3.187-8.252-5.121-11.146-6.227-1.941 2.597-3.887 5.031-5.829 7.321.276.622.543 1.255.792 1.908.511 1.342 5.859 15.904.118 28.226-11.801 25.333-65.069 29.618-109.664 33.205-11.335.912-25.597 1.649-38.261 6.739-4.381 5.866-5.345 10.725-5.63 13.179-1.414 12.169 6.822 22.15 10.164 25.794 1.203-2.717 3.207-6.568 6.486-10.524 14.741-17.787 39.558-18.766 57.242-20.188 44.595-3.587 97.863-7.872 109.664-33.205 5.739-12.322.391-26.884-.12-28.226z" fill="#c96e59"/></g></g><path d="m411.467 314.782-103.448-168.509c7.901-4.725 13.204-13.363 13.204-23.219 0-14.817-11.983-26.884-26.766-27.03 9.19-9.488 17.272-19.963 24.129-31.313 8.02-13.273 14.236-27.565 18.477-42.477 1.507-5.3.463-10.866-2.864-15.271-3.344-4.425-8.441-6.963-13.985-6.963h-128.967c-5.401 0-10.413 2.435-13.749 6.679-3.346 4.257-4.531 9.721-3.25 14.99 3.369 13.86 8.621 27.176 15.609 39.576 7.253 12.872 16.189 24.52 26.675 34.805-14.315.672-25.756 12.526-25.756 27.005 0 14.908 12.129 27.037 27.037 27.037h74.948l105.923 172.538c16.465 26.82 25.168 57.578 25.168 88.948 0 41.434-30.025 76.067-69.713 83.803 4.439-2.87 7.822-6.538 10.247-11.373 7.189-14.355 1.407-31.074.175-34.279-4.789-12.462-13.956-20.095-20.998-24.381 4.438-13.577-.302-27.443-1.386-30.293-3.207-8.426-8.698-15.603-16.32-21.329-2.472-1.857-4.861-3.329-7.026-4.494 1.624-8.315 2.604-19.54-2.613-31.427-6.368-14.503-18.415-22.331-27.397-26.342-3.931-1.758-8.509-1.54-12.25.579-3.751 2.127-6.196 5.796-6.706 10.054-1.427 11.754-5.138 20.631-11.337 27.133-9.097 9.52-21.071 11.314-34.937 13.392-15.758 2.361-33.619 5.037-47.23 21.077-3.273 3.857-13.234 15.595-12.443 32.188.258 5.425 1.675 10.81 4.144 15.906-4.159 2.421-8.076 5.324-11.689 8.88-6.998 6.888-11.18 14.681-12.093 22.536-1.234 10.618 3.058 21.887 12.086 31.729.059.065.128.117.189.179-39.039-8.234-68.408-42.56-68.408-83.539 0-31.37 8.703-62.128 25.168-88.948l91.903-149.702c2.167-3.53 1.063-8.148-2.468-10.315-3.531-2.166-8.148-1.062-10.315 2.468l-91.903 149.702c-17.916 29.182-27.385 62.653-27.385 96.796.001 55.373 45.529 100.422 101.49 100.422h162.727c55.961 0 101.489-45.049 101.489-100.422-.001-34.142-9.471-67.614-27.386-96.796zm-208.542-260.9c-6.313-11.202-11.057-23.232-14.101-35.756-.256-1.053.183-1.816.467-2.178.278-.354.903-.948 1.956-.948h128.967c1.093 0 1.731.63 2.015 1.005.274.362.691 1.122.405 2.127-3.876 13.629-9.558 26.691-16.888 38.824-8.897 14.726-20.049 27.853-33.164 39.062h-33.344c-14.891-11.637-27.105-25.798-36.313-42.136zm91.261 81.21h-76.372c-6.637 0-12.037-5.399-12.037-12.037s5.4-12.037 12.037-12.037h76.372c6.637 0 12.037 5.399 12.037 12.037s-5.4 12.037-12.037 12.037zm-106.387 258.31c9.967-11.745 23.591-13.787 38.015-15.948 14.491-2.171 30.916-4.632 43.564-17.868 7.999-8.39 13.073-19.679 15.098-33.593 6.301 3.12 13.953 8.609 18.006 17.841 4.273 9.737 2.477 19.163.788 26.377-11.656 15.263-25.148 26.783-40.133 34.233-16.375 8.142-33.369 11.129-49.803 14.018-11.021 1.937-21.726 3.823-31.578 7.189-1.466-2.91-2.665-6.459-2.855-10.479-.509-10.685 6.325-18.737 8.898-21.77zm163.177 83.886c-11.637 17.81-82.377 17.744-127.092 19.712-41.572-.348-49.687-5.76-52.793-8.561.926-1.519 1.946-2.961 3.063-4.309 11.924-14.387 32.561-15.985 49.143-17.27l2.926-.229c4.129-.332 7.207-3.948 6.875-8.077-.333-4.129-3.953-7.211-8.078-6.874l-2.881.226c-18.381 1.424-43.555 3.373-59.535 22.653-.417.504-.826 1.017-1.225 1.538-1.609-3.326-2.664-7.157-2.199-11.157.514-4.42 3.182-9.115 7.715-13.576 11.762-11.576 29.036-14.612 49.037-18.128 16.67-2.931 35.565-6.252 53.884-15.359 15.874-7.892 30.191-19.666 42.627-35.043 13.236 7.801 23.662 23.516 14.721 42.359-5.254 8.189-20.306 18.551-74.85 24.097-4.121.42-7.122 4.1-6.703 8.221.419 4.122 4.099 7.104 8.22 6.703 32.16-3.271 66.047-9.033 82.013-26.019 5.011 3.051 11.438 8.388 14.716 16.917.204.531 4.951 13.12.416 22.176z"/></g></svg>